<?xml version="1.0" encoding="utf-8"?>
<!-- Generator: Adobe Illustrator 28.2.0, SVG Export Plug-In . SVG Version: 6.00 Build 0)  -->
<svg version="1.1" id="Capa_1" xmlns="http://www.w3.org/2000/svg" xmlns:xlink="http://www.w3.org/1999/xlink" x="0px" y="0px"
	 viewBox="0 0 408.1 239.79" style="enable-background:new 0 0 408.1 239.79;" xml:space="preserve">
<style type="text/css">
	.st0{fill:#556B11;stroke:url(#SVGID_1_);stroke-width:5;stroke-miterlimit:10;}
	.st1{fill:#556B11;stroke:url(#SVGID_00000138571293313667715980000009024014512800416171_);stroke-width:5;stroke-miterlimit:10;}
	.st2{fill:#556B11;stroke:url(#SVGID_00000160164567132953203890000002450171844024862379_);stroke-width:5;stroke-miterlimit:10;}
	.st3{fill:#556B11;stroke:url(#SVGID_00000061463179102558617110000017013395625507578542_);stroke-width:5;stroke-miterlimit:10;}
	.st4{fill:#556B11;stroke:url(#SVGID_00000040571561198766314520000000654369082986270600_);stroke-width:5;stroke-miterlimit:10;}
	.st5{fill:#556B11;stroke:url(#SVGID_00000079471146631560584600000008824708989830680733_);stroke-width:5;stroke-miterlimit:10;}
	.st6{fill:#556B11;stroke:url(#SVGID_00000088825282143788042050000002295057006557977764_);stroke-width:5;stroke-miterlimit:10;}
	.st7{fill:#556B11;stroke:url(#SVGID_00000067195078646114955650000008721211941458068132_);stroke-width:5;stroke-miterlimit:10;}
	.st8{fill:#556B11;stroke:url(#SVGID_00000044146110069670846340000000345341403509827250_);stroke-width:5;stroke-miterlimit:10;}
</style>
<radialGradient id="SVGID_1_" cx="211.3301" cy="148.223" r="47.0414" gradientUnits="userSpaceOnUse">
	<stop  offset="0" style="stop-color:#FFFFFF"/>
	<stop  offset="1" style="stop-color:#1D1D1B"/>
</radialGradient>
<path class="st0" d="M210.85,192.44c-8.41-1.81-15.25-6.64-22.08-11.58c-8.22-5.94-14.04-13.97-19.8-22.08
	c-2.86-4.03-2.89-8.04-1.64-12.96c5.37-21,21-31.92,38.83-40.9c3.83-1.93,7.3-0.78,10.92,0.95c18.19,8.7,30.06,23.1,37.87,41.29
	c1.11,2.58,1.82,4.96,0.23,7.6c-9.68,16.05-21.78,29.43-39.8,36.35C213.98,191.66,212.47,191.98,210.85,192.44z M210.43,182.29
	c8.81,0.18,32.77-21.46,32.65-29.48c-0.17-11.75-21.51-35.67-32.19-36.09c-9.19-0.36-32.45,25.86-32.49,36.62
	C178.37,160.55,202.24,182.13,210.43,182.29z"/>
<radialGradient id="SVGID_00000025443400059266357500000014065232894841160609_" cx="210.095" cy="91.493" r="51.5885" gradientUnits="userSpaceOnUse">
	<stop  offset="0" style="stop-color:#FFFFFF"/>
	<stop  offset="1" style="stop-color:#1D1D1B"/>
</radialGradient>
<path style="fill:#556B11;stroke:url(#SVGID_00000025443400059266357500000014065232894841160609_);stroke-width:5;stroke-miterlimit:10;" d="
	M161.62,129.13c-6.01-17.32-7.03-32.43-7.59-47.65c-0.17-4.69,2.12-6.7,6.04-8.48c15-6.8,29.95-13.73,44.72-21.01
	c4.31-2.12,7.73-1.91,11.87,0.13c14.62,7.2,29.43,14.02,44.04,21.22c2.73,1.35,5.27,2.75,5.4,7.29c0.43,15.7-0.86,30.92-7.34,46.19
	c-5.62-5.93-5.28-11.4-3.58-17.66c6.76-24.93,6.39-25.46-17.03-36.7c-3.11-1.49-6.72-2.31-9.32-4.42
	c-15.42-12.49-29.02-4.35-42.7,3.37c-1.95,1.1-3.53,2.86-5.43,4.06c-5.89,3.71-17.28,0.65-16.82,11.91
	c0.3,7.36-0.71,14.93,2.77,22.35C169.28,115.39,166.29,121.41,161.62,129.13z"/>
<radialGradient id="SVGID_00000124135692859388039060000001370991723519585195_" cx="327.4072" cy="104.6095" r="36.6502" gradientUnits="userSpaceOnUse">
	<stop  offset="0" style="stop-color:#FFFFFF"/>
	<stop  offset="1" style="stop-color:#1D1D1B"/>
</radialGradient>
<path style="fill:#556B11;stroke:url(#SVGID_00000124135692859388039060000001370991723519585195_);stroke-width:5;stroke-miterlimit:10;" d="
	M329.16,96.83c13.44-0.01,26.87-0.07,40.31,0.04c2.05,0.02,4.85-1.23,5.94,1.72c0.94,2.53-0.8,4.51-2.46,6
	c-5.58,5.03-12.07,7.97-19.76,7.96c-22.26-0.04-44.53,0.01-66.79,0.01c-3.8,0-8.13,0.79-7.07-5.63c0.77-4.67-0.88-10.37,7.24-10.18
	C300.74,97.08,314.95,96.84,329.16,96.83z"/>
<radialGradient id="SVGID_00000149367807822397690990000006101912362411872136_" cx="314.8863" cy="135.7359" r="31.0242" gradientUnits="userSpaceOnUse">
	<stop  offset="0" style="stop-color:#FFFFFF"/>
	<stop  offset="1" style="stop-color:#1D1D1B"/>
</radialGradient>
<path style="fill:#556B11;stroke:url(#SVGID_00000149367807822397690990000006101912362411872136_);stroke-width:5;stroke-miterlimit:10;" d="
	M353.22,127.57c-8.76,16.16-22.85,15.58-35.93,16.23c-11.38,0.56-22.85-0.12-34.25-0.77c-2.88-0.17-9.27,3.04-8.02-3.72
	c0.83-4.51-0.66-12.78,8.76-11.76c1.89,0.2,3.83,0.03,5.74,0.03C310.17,127.57,330.82,127.57,353.22,127.57z"/>
<radialGradient id="SVGID_00000069371304974493009470000008198277641547956371_" cx="296.0107" cy="161.4561" r="25.0192" gradientUnits="userSpaceOnUse">
	<stop  offset="0" style="stop-color:#FFFFFF"/>
	<stop  offset="1" style="stop-color:#1D1D1B"/>
</radialGradient>
<path style="fill:#556B11;stroke:url(#SVGID_00000069371304974493009470000008198277641547956371_);stroke-width:5;stroke-miterlimit:10;" d="
	M264.81,168.12c0.71-12.98,7.93-15.02,18.39-14.45c14.4,0.8,28.87,0.2,43.45,0.2C322.27,171.83,303.94,170.12,264.81,168.12z"/>
<radialGradient id="SVGID_00000153700661717561890280000013174909749973868426_" cx="89.9705" cy="104.6095" r="36.6502" gradientUnits="userSpaceOnUse">
	<stop  offset="0" style="stop-color:#FFFFFF"/>
	<stop  offset="1" style="stop-color:#1D1D1B"/>
</radialGradient>
<path style="fill:#556B11;stroke:url(#SVGID_00000153700661717561890280000013174909749973868426_);stroke-width:5;stroke-miterlimit:10;" d="
	M88.22,96.83c-13.44-0.01-26.87-0.07-40.31,0.04c-2.05,0.02-4.85-1.23-5.94,1.72c-0.94,2.53,0.8,4.51,2.46,6
	c5.58,5.03,12.07,7.97,19.76,7.96c22.26-0.04,44.53,0.01,66.79,0.01c3.8,0,8.13,0.79,7.07-5.63c-0.77-4.67,0.88-10.37-7.24-10.18
	C116.63,97.08,102.43,96.84,88.22,96.83z"/>
<radialGradient id="SVGID_00000059292976384801790940000009845621705001818534_" cx="102.4914" cy="135.7359" r="31.0242" gradientUnits="userSpaceOnUse">
	<stop  offset="0" style="stop-color:#FFFFFF"/>
	<stop  offset="1" style="stop-color:#1D1D1B"/>
</radialGradient>
<path style="fill:#556B11;stroke:url(#SVGID_00000059292976384801790940000009845621705001818534_);stroke-width:5;stroke-miterlimit:10;" d="
	M64.16,127.57c8.76,16.16,22.85,15.58,35.93,16.23c11.38,0.56,22.85-0.12,34.25-0.77c2.88-0.17,9.27,3.04,8.02-3.72
	c-0.83-4.51,0.66-12.78-8.76-11.76c-1.89,0.2-3.83,0.03-5.74,0.03C107.21,127.57,86.56,127.57,64.16,127.57z"/>
<radialGradient id="SVGID_00000165228380410106467970000004887947548548491187_" cx="121.367" cy="161.4561" r="25.0192" gradientUnits="userSpaceOnUse">
	<stop  offset="0" style="stop-color:#FFFFFF"/>
	<stop  offset="1" style="stop-color:#1D1D1B"/>
</radialGradient>
<path style="fill:#556B11;stroke:url(#SVGID_00000165228380410106467970000004887947548548491187_);stroke-width:5;stroke-miterlimit:10;" d="
	M152.56,168.12c-0.71-12.98-7.93-15.02-18.39-14.45c-14.4,0.8-28.87,0.2-43.45,0.2C95.11,171.83,113.43,170.12,152.56,168.12z"/>
<radialGradient id="SVGID_00000073679800643867679770000015524686400122181304_" cx="211.817" cy="84.5123" r="8.9227" gradientUnits="userSpaceOnUse">
	<stop  offset="0" style="stop-color:#FFFFFF"/>
	<stop  offset="1" style="stop-color:#1D1D1B"/>
</radialGradient>
<path style="fill:#556B11;stroke:url(#SVGID_00000073679800643867679770000015524686400122181304_);stroke-width:5;stroke-miterlimit:10;" d="
	M217.64,83c-2.51,2.75-1.62,6.62-5.98,6.99c-4.51,0.38-6.34-2.27-7-5.6c-0.77-3.88,3.49-5.2,5.61-5.38
	C212.52,78.82,215.01,81.46,217.64,83z"/>
</svg>
